<svg xmlns="http://www.w3.org/2000/svg" viewBox="0 0 50 50" width="50" height="50">
  <defs>
    <linearGradient id="qrGradient" x1="0%" y1="0%" x2="100%" y2="100%">
      <stop offset="0%" style="stop-color:#4F46E5;stop-opacity:1" />
      <stop offset="100%" style="stop-color:#7C3AED;stop-opacity:1" />
    </linearGradient>
  </defs>
  
  <!-- QR Code inspired icon -->
  <g transform="translate(5, 5)">
    <!-- Corner squares (QR positioning squares) -->
    <rect x="0" y="0" width="8" height="8" fill="url(#qrGradient)" rx="1"/>
    <rect x="0" y="22" width="8" height="8" fill="url(#qrGradient)" rx="1"/>
    <rect x="22" y="0" width="8" height="8" fill="url(#qrGradient)" rx="1"/>
    
    <!-- Inner corner squares -->
    <rect x="2" y="2" width="4" height="4" fill="white" rx="0.5"/>
    <rect x="2" y="24" width="4" height="4" fill="white" rx="0.5"/>
    <rect x="24" y="24" width="4" height="4" fill="white" rx="0.5"/>
    
    <!-- Data pattern squares -->
    <rect x="10" y="2" width="2" height="2" fill="url(#qrGradient)"/>
    <rect x="14" y="2" width="2" height="2" fill="url(#qrGradient)"/>
    <rect x="18" y="2" width="2" height="2" fill="url(#qrGradient)"/>
    
    <rect x="2" y="10" width="2" height="2" fill="url(#qrGradient)"/>
    <rect x="6" y="10" width="2" height="2" fill="url(#qrGradient)"/>
    <rect x="10" y="10" width="2" height="2" fill="url(#qrGradient)"/>
    <rect x="14" y="10" width="2" height="2" fill="url(#qrGradient)"/>
    <rect x="18" y="10" width="2" height="2" fill="url(#qrGradient)"/>
    <rect x="22" y="10" width="2" height="2" fill="url(#qrGradient)"/>
    <rect x="26" y="10" width="2" height="2" fill="url(#qrGradient)"/>
    
    <rect x="10" y="14" width="2" height="2" fill="url(#qrGradient)"/>
    <rect x="18" y="14" width="2" height="2" fill="url(#qrGradient)"/>
    <rect x="22" y="14" width="2" height="2" fill="url(#qrGradient)"/>
    <rect x="26" y="14" width="2" height="2" fill="url(#qrGradient)"/>
    
    <rect x="10" y="18" width="2" height="2" fill="url(#qrGradient)"/>
    <rect x="14" y="18" width="2" height="2" fill="url(#qrGradient)"/>
    <rect x="22" y="18" width="2" height="2" fill="url(#qrGradient)"/>
    <rect x="26" y="18" width="2" height="2" fill="url(#qrGradient)"/>
    
    <rect x="10" y="22" width="2" height="2" fill="url(#qrGradient)"/>
    <rect x="14" y="22" width="2" height="2" fill="url(#qrGradient)"/>
    <rect x="18" y="22" width="2" height="2" fill="url(#qrGradient)"/>
    
    <rect x="10" y="26" width="2" height="2" fill="url(#qrGradient)"/>
    <rect x="18" y="26" width="2" height="2" fill="url(#qrGradient)"/>
    <rect x="22" y="26" width="2" height="2" fill="url(#qrGradient)"/>
    <rect x="26" y="26" width="2" height="2" fill="url(#qrGradient)"/>
  </g>
  

</svg>