<svg xmlns="http://www.w3.org/2000/svg" viewBox="0 0 32 32" width="32" height="32">
  <defs>
    <linearGradient id="qrGradient" x1="0%" y1="0%" x2="100%" y2="100%">
      <stop offset="0%" style="stop-color:#4F46E5;stop-opacity:1" />
      <stop offset="100%" style="stop-color:#7C3AED;stop-opacity:1" />
    </linearGradient>
  </defs>
  
  <!-- QR Code favicon - simplified for 32x32 -->
  <g transform="translate(2, 2)">
    <!-- Corner squares (QR positioning squares) -->
    <rect x="0" y="0" width="8" height="8" fill="url(#qrGradient)" rx="1"/>
    <rect x="0" y="20" width="8" height="8" fill="url(#qrGradient)" rx="1"/>
    <rect x="20" y="0" width="8" height="8" fill="url(#qrGradient)" rx="1"/>
    
    <!-- Inner corner squares -->
    <rect x="2" y="2" width="4" height="4" fill="white" rx="0.5"/>
    <rect x="2" y="22" width="4" height="4" fill="white" rx="0.5"/>
    <rect x="22" y="2" width="4" height="4" fill="white" rx="0.5"/>
    
    <!-- Simplified data pattern for favicon size -->
    <rect x="10" y="0" width="2" height="2" fill="url(#qrGradient)"/>
    <rect x="14" y="0" width="2" height="2" fill="url(#qrGradient)"/>
    
    <rect x="0" y="10" width="2" height="2" fill="url(#qrGradient)"/>
    <rect x="4" y="10" width="2" height="2" fill="url(#qrGradient)"/>
    <rect x="10" y="10" width="2" height="2" fill="url(#qrGradient)"/>
    <rect x="14" y="10" width="2" height="2" fill="url(#qrGradient)"/>
    <rect x="18" y="10" width="2" height="2" fill="url(#qrGradient)"/>
    <rect x="22" y="10" width="2" height="2" fill="url(#qrGradient)"/>
    <rect x="26" y="10" width="2" height="2" fill="url(#qrGradient)"/>
    
    <rect x="10" y="14" width="2" height="2" fill="url(#qrGradient)"/>
    <rect x="18" y="14" width="2" height="2" fill="url(#qrGradient)"/>
    <rect x="26" y="14" width="2" height="2" fill="url(#qrGradient)"/>
    
    <rect x="10" y="18" width="2" height="2" fill="url(#qrGradient)"/>
    <rect x="14" y="18" width="2" height="2" fill="url(#qrGradient)"/>
    <rect x="22" y="18" width="2" height="2" fill="url(#qrGradient)"/>
    <rect x="26" y="18" width="2" height="2" fill="url(#qrGradient)"/>
    
    <rect x="10" y="22" width="2" height="2" fill="url(#qrGradient)"/>
    <rect x="18" y="22" width="2" height="2" fill="url(#qrGradient)"/>
    <rect x="26" y="22" width="2" height="2" fill="url(#qrGradient)"/>
    
    <rect x="10" y="26" width="2" height="2" fill="url(#qrGradient)"/>
    <rect x="14" y="26" width="2" height="2" fill="url(#qrGradient)"/>
    <rect x="18" y="26" width="2" height="2" fill="url(#qrGradient)"/>
    <rect x="26" y="26" width="2" height="2" fill="url(#qrGradient)"/>
  </g>
</svg>